<?xml version="1.0" encoding="utf-8"?>
<!-- Generator: Adobe Illustrator 23.0.1, SVG Export Plug-In . SVG Version: 6.00 Build 0)  -->
<svg version="1.0" id="Layer_1" xmlns="http://www.w3.org/2000/svg" xmlns:xlink="http://www.w3.org/1999/xlink" x="0px" y="0px"
	 viewBox="0 0 51 34" enable-background="new 0 0 51 34" xml:space="preserve">
<g>
	<g>
		<path fill="#FFFFFF" d="M5.7,31.7l-1,0c0.2-10,3.4-17.6,9.4-22.6c10.6-8.8,27-7.2,33.6-6.1l-0.2,1c-6.4-1.1-22.5-2.6-32.8,5.9
			C9,14.7,5.9,22.1,5.7,31.7z"/>
	</g>
	<g>
		<g>
			<path fill="#FFFFFF" d="M47.9,1.2c1.2,0.2,2,1.4,1.8,2.6c-0.2,1.2-1.4,2-2.6,1.8c-1.2-0.2-2-1.4-1.8-2.6S46.7,1,47.9,1.2z"/>
		</g>
	</g>
	<g>
		<g>
			<polygon fill="#FFFFFF" points="1.3,28.3 2,27.6 5.2,31.4 8.7,27.9 9.4,28.6 5.2,32.8 			"/>
		</g>
	</g>
</g>
</svg>
