<?xml version="1.0" encoding="utf-8"?>
<!-- Generator: Adobe Illustrator 23.0.1, SVG Export Plug-In . SVG Version: 6.00 Build 0)  -->
<svg version="1.0" id="Layer_1" xmlns="http://www.w3.org/2000/svg" xmlns:xlink="http://www.w3.org/1999/xlink" x="0px" y="0px"
	 viewBox="0 0 189.9 42.5" enable-background="new 0 0 189.9 42.5" xml:space="preserve">
<g>
	<path fill="#FFFFFF" d="M41,0.6H0.5c0,0-0.1,0-0.1,0.1v40.5c0,0,0,0.1,0.1,0.1H41c0,0,0.1,0,0.1-0.1L41,0.6
		C41.1,0.7,41.1,0.6,41,0.6z M5,31L7.1,5.2c0,0,0-0.1,0.1-0.1L29,6.9c0.1,0,0.1,0.1,0,0.1l-24,24C5.1,31.1,5,31.1,5,31z M34.5,37.3
		C34.5,37.4,34.4,37.4,34.5,37.3l-22.6-1.8c-0.1,0-0.1-0.1,0-0.1l24.7-24.7c0,0,0.1,0,0.1,0.1L34.5,37.3z"/>
	<g>
		<path fill="#FFFFFF" d="M74.8,1.2L89.2,40c0,0.1,0,0.2,0,0.3v0.3c0,0.4-0.4,0.8-0.8,0.8h-10c-0.3,0-0.6-0.2-0.7-0.5l-2.2-5.8h-13
			l-2.2,5.8c-0.1,0.3-0.4,0.5-0.7,0.5h-10c-0.4,0-0.8-0.4-0.8-0.8v-0.3c0-0.1,0-0.2,0-0.3L63.3,1.2c0.1-0.3,0.4-0.5,0.7-0.5h10
			C74.4,0.6,74.7,0.9,74.8,1.2z M71.8,25L69,17.5L66.2,25H71.8z"/>
		<path fill="#FFFFFF" d="M116.3,9.5c0,0.4-0.4,0.8-0.8,0.8h-8.9v30.2c0,0.4-0.4,0.8-0.8,0.8H96c-0.4,0-0.8-0.4-0.8-0.8V10.3h-8.9
			c-0.4,0-0.8-0.4-0.8-0.8V1.4c0-0.4,0.4-0.8,0.8-0.8h29.3c0.4,0,0.8,0.4,0.8,0.8V9.5z"/>
		<path fill="#FFFFFF" d="M144.1,41.3h-22.7c-0.4,0-0.8-0.4-0.8-0.8V1.4c0-0.4,0.4-0.8,0.8-0.8h9.8c0.4,0,0.8,0.4,0.8,0.8v30.4h12.1
			c0.4,0,0.8,0.4,0.8,0.8v7.9C144.8,40.9,144.5,41.3,144.1,41.3z"/>
		<path fill="#FFFFFF" d="M189.5,21.3c0,11.7-9.6,21.2-21.5,21.2c-11.9,0-21.5-9.5-21.5-21.2S156.1,0,168,0
			C179.8,0,189.5,9.5,189.5,21.3z M177.8,21.3c0-5.4-4.4-9.7-9.9-9.7c-5.4,0-9.9,4.4-9.9,9.7s4.4,9.7,9.9,9.7
			C173.4,31,177.8,26.6,177.8,21.3z"/>
	</g>
</g>
</svg>
